<svg width="18" height="18" viewBox="0 0 18 18" fill="none" xmlns="http://www.w3.org/2000/svg">
<path fill-rule="evenodd" clip-rule="evenodd" d="M0 2C0 0.895431 0.89543 0 2 0H16C17.1046 0 18 0.89543 18 2V16C18 17.1046 17.1046 18 16 18H2C0.895431 18 0 17.1046 0 16V2ZM4 2C2.89543 2 2 2.89543 2 4V14C2 15.1046 2.89543 16 4 16H11C11.5523 16 12 15.5523 12 15V15C12 14.4477 11.5523 14 11 14H8C6.89543 14 6 13.1046 6 12V4C6 2.89543 5.10457 2 4 2V2ZM10 2C8.89543 2 8 2.89543 8 4V6C8 7.10457 8.89543 8 10 8H11.5C12.0523 8 12.5 8.44772 12.5 9V9C12.5 9.55228 12.0523 10 11.5 10H9C8.44772 10 8 10.4477 8 11V11C8 11.5523 8.44772 12 9 12H14C15.1046 12 16 11.1046 16 10V8C16 6.89543 15.1046 6 14 6H12.5C11.9477 6 11.5 5.55228 11.5 5V5C11.5 4.44772 11.9477 4 12.5 4H15C15.5523 4 16 3.55228 16 3V3C16 2.44772 15.5523 2 15 2H10Z" fill="#1F1F1F"/>
</svg>
